<svg xmlns="http://www.w3.org/2000/svg" viewBox="0 0 512 512">
  <defs>
    <linearGradient id="bg" x1="0" x2="1" y1="0" y2="1">
      <stop offset="0%" stop-color="#0d6b57"/>
      <stop offset="100%" stop-color="#084c3e"/>
    </linearGradient>
  </defs>
  <rect width="512" height="512" rx="120" fill="url(#bg)"/>
  <circle cx="256" cy="256" r="154" fill="#fffaf0" opacity="0.14"/>
  <path d="M256 110c-10 0-18 8-18 18v85h-84c-10 0-18 8-18 18s8 18 18 18h84v135c0 10 8 18 18 18s18-8 18-18V249h84c10 0 18-8 18-18s-8-18-18-18h-84v-85c0-10-8-18-18-18Z" fill="#fffaf0"/>
  <path d="M173 367c29 22 55 32 83 32 31 0 57-11 83-32" fill="none" stroke="#fffaf0" stroke-linecap="round" stroke-width="22"/>
</svg>
